Normalized EMG Linear Envelopes
nRows=167
nColumns=4

endheader
time	 med_gas_r	  soleus_r	 tib_ant_r	
1.69646	  0.057890	  0.069760	  0.022484	
1.72973	  0.069749	  0.069062	  0.022178	
1.76299	  0.081041	  0.068145	  0.021851	
1.79626	  0.091024	  0.066837	  0.021506	
1.82952	  0.098763	  0.065251	  0.021152	
1.86278	  0.103676	  0.063716	  0.020807	
1.89605	  0.105975	  0.062578	  0.020496	
1.92931	  0.106534	  0.061984	  0.020250	
1.96258	  0.106226	  0.061815	  0.020099	
1.99584	  0.105318	  0.061786	  0.020062	
2.0291	  0.103470	  0.061637	  0.020132	
2.06237	  0.100339	  0.061252	  0.020275	
2.09563	  0.096206	  0.060683	  0.020446	
2.1289	  0.092079	  0.060078	  0.020624	
2.16216	  0.089221	  0.059589	  0.020823	
2.19542	  0.088509	  0.059290	  0.021071	
2.22869	  0.090041	  0.059138	  0.021351	
2.26195	  0.093101	  0.059007	  0.021580	
2.29522	  0.096432	  0.058793	  0.021647	
2.32848	  0.098781	  0.058516	  0.021492	
2.36174	  0.099517	  0.058330	  0.021149	
2.39501	  0.098924	  0.058415	  0.020730	
2.42827	  0.097892	  0.058856	  0.020347	
2.46154	  0.097215	  0.059609	  0.020064	
2.4948	  0.097140	  0.060568	  0.019893	
2.52806	  0.097513	  0.061636	  0.019822	
2.56133	  0.098210	  0.062722	  0.019829	
2.59459	  0.099297	  0.063699	  0.019887	
2.62786	  0.100704	  0.064398	  0.019964	
2.66112	  0.101882	  0.064685	  0.020051	
2.69438	  0.101926	  0.064559	  0.020177	
2.72765	  0.100191	  0.064163	  0.020385	
2.76091	  0.096877	  0.063704	  0.020684	
2.79418	  0.093009	  0.063352	  0.021019	
2.82744	  0.089806	  0.063215	  0.021296	
2.8607	  0.087904	  0.063370	  0.021445	
2.89397	  0.087014	  0.063886	  0.021455	
2.92723	  0.086253	  0.064752	  0.021355	
2.9605	  0.084869	  0.065788	  0.021168	
2.99376	  0.082780	  0.066644	  0.020898	
3.02702	  0.080591	  0.066965	  0.020552	
3.06029	  0.079134	  0.066599	  0.020173	
3.09355	  0.078935	  0.065684	  0.019832	
3.12682	  0.079913	  0.064527	  0.019589	
3.16008	  0.081425	  0.063375	  0.019459	
3.19334	  0.082642	  0.062279	  0.019426	
3.22661	  0.083103	  0.061137	  0.019461	
3.25987	  0.083099	  0.059870	  0.019540	
3.29314	  0.083526	  0.058567	  0.019644	
3.3264	  0.085218	  0.057473	  0.019754	
3.35966	  0.088195	  0.056868	  0.019859	
3.39293	  0.091481	  0.056920	  0.019961	
3.42619	  0.093690	  0.057620	  0.020069	
3.45946	  0.094007	  0.058808	  0.020189	
3.49272	  0.092802	  0.060245	  0.020309	
3.52598	  0.091409	  0.061688	  0.020397	
3.55925	  0.091257	  0.062948	  0.020413	
3.59251	  0.093007	  0.063938	  0.020327	
3.62578	  0.096251	  0.064695	  0.020132	
3.65904	  0.099827	  0.065360	  0.019855	
3.6923	  0.102444	  0.066099	  0.019548	
3.72557	  0.103267	  0.067015	  0.019277	
3.75883	  0.102235	  0.068094	  0.019096	
3.7921	  0.100017	  0.069256	  0.019029	
3.82536	  0.097631	  0.070439	  0.019070	
3.85862	  0.095909	  0.071637	  0.019184	
3.89189	  0.095082	  0.072845	  0.019328	
3.92515	  0.094718	  0.073962	  0.019467	
3.95842	  0.094092	  0.074786	  0.019590	
3.99168	  0.092744	  0.075104	  0.019700	
4.02494	  0.090823	  0.074796	  0.019801	
4.05821	  0.088966	  0.073879	  0.019878	
4.09147	  0.087877	  0.072483	  0.019910	
4.12474	  0.088059	  0.070814	  0.019903	
4.158	  0.089828	  0.069130	  0.019909	
4.19126	  0.093400	  0.067672	  0.020008	
4.22453	  0.098771	  0.066584	  0.020249	
4.25779	  0.105479	  0.065857	  0.020602	
4.29106	  0.112576	  0.065378	  0.020970	
4.32432	  0.118954	  0.065059	  0.021236	
4.35758	  0.123815	  0.064894	  0.021322	
4.39085	  0.126895	  0.064902	  0.021203	
4.42411	  0.128296	  0.065019	  0.020893	
4.45738	  0.128128	  0.065089	  0.020418	
4.49064	  0.126361	  0.064983	  0.019814	
4.5239	  0.123041	  0.064711	  0.019128	
4.55717	  0.118598	  0.064414	  0.018426	
4.59043	  0.113862	  0.064244	  0.017793	
4.6237	  0.109689	  0.064261	  0.017347	
4.65696	  0.106532	  0.064424	  0.017245	
4.69022	  0.104364	  0.064674	  0.017686	
4.72349	  0.102969	  0.064998	  0.018915	
4.75675	  0.102246	  0.065438	  0.021239	
4.79002	  0.102236	  0.066045	  0.025040	
4.82328	  0.102943	  0.066852	  0.030733	
4.85654	  0.104296	  0.067872	  0.038605	
4.88981	  0.106354	  0.069124	  0.048558	
4.92307	  0.109453	  0.070647	  0.059880	
4.95634	  0.113959	  0.072489	  0.071271	
4.9896	  0.119764	  0.074653	  0.081244	
5.02286	  0.126022	  0.077035	  0.088861	
5.05613	  0.131394	  0.079412	  0.094485	
5.08939	  0.134568	  0.081557	  0.100165	
5.12266	  0.134672	  0.083436	  0.109309	
5.15592	  0.131471	  0.085329	  0.125683	
5.18918	  0.125488	  0.087705	  0.152160	
5.22245	  0.117998	  0.090948	  0.189912	
5.25571	  0.110738	  0.095155	  0.238515	
5.28898	  0.105357	  0.100194	  0.296789	
5.32224	  0.102944	  0.106016	  0.363597	
5.3555	  0.103907	  0.112926	  0.437701	
5.38877	  0.108154	  0.121555	  0.516581	
5.42203	  0.115323	  0.132516	  0.595247	
5.4553	  0.124873	  0.145983	  0.666551	
5.48856	  0.136066	  0.161500	  0.723524	
5.52182	  0.147914	  0.178081	  0.762396	
5.55509	  0.159170	  0.194446	  0.784048	
5.58835	  0.168526	  0.209232	  0.792768	
5.62162	  0.175051	  0.221204	  0.793390	
5.65488	  0.178616	  0.229519	  0.789049	
5.68814	  0.179873	  0.233975	  0.780879	
5.72141	  0.179641	  0.235080	  0.769095	
5.75467	  0.178188	  0.233818	  0.754037	
5.78794	  0.175115	  0.231236	  0.736381	
5.8212	  0.170016	  0.228114	  0.716722	
5.85446	  0.163362	  0.224871	  0.695236	
5.88773	  0.156749	  0.221670	  0.671699	
5.92099	  0.152198	  0.218503	  0.645705	
5.95426	  0.150985	  0.215165	  0.616842	
5.98752	  0.152869	  0.211275	  0.584765	
6.02078	  0.156277	  0.206481	  0.549308	
6.05405	  0.159286	  0.200783	  0.510830	
6.08731	  0.160685	  0.194663	  0.470764	
6.12058	  0.160415	  0.188874	  0.431903	
6.15384	  0.159214	  0.184067	  0.397921	
6.1871	  0.157871	  0.180621	  0.372256	
6.22037	  0.156679	  0.178756	  0.357057	
6.25363	  0.155434	  0.178701	  0.352722	
6.2869	  0.153890	  0.180625	  0.357978	
6.32016	  0.152301	  0.184390	  0.370257	
6.35342	  0.151535	  0.189410	  0.386327	
6.38669	  0.152581	  0.194805	  0.403053	
6.41995	  0.155824	  0.199724	  0.418015	
6.45322	  0.160740	  0.203589	  0.429693	
6.48648	  0.166337	  0.206110	  0.437251	
6.51974	  0.171972	  0.207193	  0.440204	
6.55301	  0.177743	  0.206844	  0.438228	
6.58627	  0.184060	  0.205140	  0.431281	
6.61954	  0.190746	  0.202185	  0.419943	
6.6528	  0.196670	  0.198046	  0.405672	
6.68606	  0.200497	  0.192734	  0.390730	
6.71933	  0.201988	  0.186348	  0.377827	
6.75259	  0.202516	  0.179393	  0.369690	
6.78586	  0.204129	  0.173000	  0.368572	
6.81912	  0.208013	  0.168740	  0.375507	
6.85238	  0.213861	  0.167971	  0.389479	
6.88565	  0.220654	  0.171171	  0.407197	
6.91891	  0.227817	  0.177735	  0.424104	
6.95218	  0.235511	  0.186396	  0.436353	
6.98544	  0.243908	  0.195883	  0.442516	
7.0187	  0.252385	  0.205354	  0.443930	
7.05197	  0.259444	  0.214495	  0.443641	
7.08523	  0.263362	  0.223497	  0.444845	
7.1185	  0.262996	  0.233111	  0.449671	
7.15176	  0.258289	  0.244634	  0.458626	
7.18502	  0.250348	  0.259547	  0.470680	
7.21829	  0.241174	  0.278694	  0.483958	
